%TF.GenerationSoftware,KiCad,Pcbnew,(5.1.6-0-10_14)*%
%TF.CreationDate,2021-01-22T14:40:49+09:00*%
%TF.ProjectId,test02,74657374-3032-42e6-9b69-6361645f7063,rev?*%
%TF.SameCoordinates,Original*%
%TF.FileFunction,Soldermask,Top*%
%TF.FilePolarity,Negative*%
%FSLAX46Y46*%
G04 Gerber Fmt 4.6, Leading zero omitted, Abs format (unit mm)*
G04 Created by KiCad (PCBNEW (5.1.6-0-10_14)) date 2021-01-22 14:40:49*
%MOMM*%
%LPD*%
G01*
G04 APERTURE LIST*
%ADD10C,0.100000*%
%ADD11R,1.000000X1.500000*%
%ADD12R,0.270000X1.120000*%
%ADD13R,1.200000X0.900000*%
%ADD14R,0.500000X0.900000*%
%ADD15R,3.500000X3.500000*%
%ADD16R,1.800000X1.800000*%
%ADD17C,1.800000*%
G04 APERTURE END LIST*
D10*
%TO.C,JP4*%
G36*
X162290080Y-69042280D02*
G01*
X162790080Y-68292280D01*
X163790080Y-68292280D01*
X163790080Y-69792280D01*
X162790080Y-69792280D01*
X162290080Y-69042280D01*
G37*
G36*
X161340080Y-68292280D02*
G01*
X162490080Y-68292280D01*
X161990080Y-69042280D01*
X162490080Y-69792280D01*
X161340080Y-69792280D01*
X161340080Y-68292280D01*
G37*
%TD*%
%TO.C,JP2*%
G36*
X161915080Y-82237678D02*
G01*
X161890546Y-82237678D01*
X161841715Y-82232868D01*
X161793590Y-82223296D01*
X161746635Y-82209052D01*
X161701302Y-82190275D01*
X161658029Y-82167144D01*
X161617230Y-82139884D01*
X161579301Y-82108756D01*
X161544604Y-82074059D01*
X161513476Y-82036130D01*
X161486216Y-81995331D01*
X161463085Y-81952058D01*
X161444308Y-81906725D01*
X161430064Y-81859770D01*
X161420492Y-81811645D01*
X161415682Y-81762814D01*
X161415682Y-81738280D01*
X161415080Y-81738280D01*
X161415080Y-81238280D01*
X161415682Y-81238280D01*
X161415682Y-81213746D01*
X161420492Y-81164915D01*
X161430064Y-81116790D01*
X161444308Y-81069835D01*
X161463085Y-81024502D01*
X161486216Y-80981229D01*
X161513476Y-80940430D01*
X161544604Y-80902501D01*
X161579301Y-80867804D01*
X161617230Y-80836676D01*
X161658029Y-80809416D01*
X161701302Y-80786285D01*
X161746635Y-80767508D01*
X161793590Y-80753264D01*
X161841715Y-80743692D01*
X161890546Y-80738882D01*
X161915080Y-80738882D01*
X161915080Y-80738280D01*
X162415080Y-80738280D01*
X162415080Y-82238280D01*
X161915080Y-82238280D01*
X161915080Y-82237678D01*
G37*
G36*
X162715080Y-80738280D02*
G01*
X163215080Y-80738280D01*
X163215080Y-80738882D01*
X163239614Y-80738882D01*
X163288445Y-80743692D01*
X163336570Y-80753264D01*
X163383525Y-80767508D01*
X163428858Y-80786285D01*
X163472131Y-80809416D01*
X163512930Y-80836676D01*
X163550859Y-80867804D01*
X163585556Y-80902501D01*
X163616684Y-80940430D01*
X163643944Y-80981229D01*
X163667075Y-81024502D01*
X163685852Y-81069835D01*
X163700096Y-81116790D01*
X163709668Y-81164915D01*
X163714478Y-81213746D01*
X163714478Y-81238280D01*
X163715080Y-81238280D01*
X163715080Y-81738280D01*
X163714478Y-81738280D01*
X163714478Y-81762814D01*
X163709668Y-81811645D01*
X163700096Y-81859770D01*
X163685852Y-81906725D01*
X163667075Y-81952058D01*
X163643944Y-81995331D01*
X163616684Y-82036130D01*
X163585556Y-82074059D01*
X163550859Y-82108756D01*
X163512930Y-82139884D01*
X163472131Y-82167144D01*
X163428858Y-82190275D01*
X163383525Y-82209052D01*
X163336570Y-82223296D01*
X163288445Y-82232868D01*
X163239614Y-82237678D01*
X163215080Y-82237678D01*
X163215080Y-82238280D01*
X162715080Y-82238280D01*
X162715080Y-80738280D01*
G37*
%TD*%
D11*
%TO.C,JP1*%
X163215080Y-78821280D03*
X161915080Y-78821280D03*
%TD*%
D12*
%TO.C,U1*%
X163315080Y-73860280D03*
X162815080Y-73860280D03*
X162315080Y-73860280D03*
X161815080Y-73860280D03*
X161815080Y-76670280D03*
X162315080Y-76670280D03*
X162815080Y-76670280D03*
X163315080Y-76670280D03*
%TD*%
D13*
%TO.C,R6*%
X157655080Y-74249280D03*
X159855080Y-74249280D03*
%TD*%
D14*
%TO.C,R5*%
X158005080Y-76535280D03*
X159505080Y-76535280D03*
%TD*%
D13*
%TO.C,R4*%
X159855080Y-69171820D03*
X157655080Y-69171820D03*
%TD*%
D14*
%TO.C,R3*%
X159500000Y-71706740D03*
X158000000Y-71706740D03*
%TD*%
D13*
%TO.C,R2*%
X159855080Y-81361280D03*
X157655080Y-81361280D03*
%TD*%
D14*
%TO.C,R1*%
X159505080Y-78821280D03*
X158005080Y-78821280D03*
%TD*%
D11*
%TO.C,JP3*%
X163210000Y-71706740D03*
X161910000Y-71706740D03*
%TD*%
%TO.C,J1*%
G36*
G01*
X146825000Y-76250000D02*
X148575000Y-76250000D01*
G75*
G02*
X149450000Y-77125000I0J-875000D01*
G01*
X149450000Y-78875000D01*
G75*
G02*
X148575000Y-79750000I-875000J0D01*
G01*
X146825000Y-79750000D01*
G75*
G02*
X145950000Y-78875000I0J875000D01*
G01*
X145950000Y-77125000D01*
G75*
G02*
X146825000Y-76250000I875000J0D01*
G01*
G37*
G36*
G01*
X142000000Y-73500000D02*
X144000000Y-73500000D01*
G75*
G02*
X144750000Y-74250000I0J-750000D01*
G01*
X144750000Y-75750000D01*
G75*
G02*
X144000000Y-76500000I-750000J0D01*
G01*
X142000000Y-76500000D01*
G75*
G02*
X141250000Y-75750000I0J750000D01*
G01*
X141250000Y-74250000D01*
G75*
G02*
X142000000Y-73500000I750000J0D01*
G01*
G37*
D15*
X143000000Y-81000000D03*
%TD*%
D16*
%TO.C,D2*%
X154437080Y-71963280D03*
D17*
X151897080Y-71963280D03*
%TD*%
D16*
%TO.C,D1*%
X154437080Y-78567280D03*
D17*
X151897080Y-78567280D03*
%TD*%
M02*
